<?xml version="1.0" encoding="utf-8"?><svg viewBox="0 0 20 21" xmlns="http://www.w3.org/2000/svg" xmlns:xlink="http://www.w3.org/1999/xlink"><style>:root>svg{display:none}:root>svg:target{display:block}</style><svg viewBox="0 0 20 21" id="arrow-diagonal-right" xmlns="http://www.w3.org/2000/svg"><path d="M14.6 14.85a.4.4 0 0 1-.4.4h-.4a.4.4 0 0 1-.4-.4V8.912a.4.4 0 0 0-.683-.282l-6.136 6.135a.4.4 0 0 1-.565 0l-.282-.282a.4.4 0 0 1 0-.565l6.136-6.136a.4.4 0 0 0-.283-.683H5.65a.4.4 0 0 1-.4-.4v-.4a.4.4 0 0 1 .4-.4h8.55c.22 0 .4.18.4.4v8.55Z"/></svg></svg>